<?xml version="1.0" standalone="no"?><svg xmlns="http://www.w3.org/2000/svg" viewBox="0 0 1440 320"><path fill="#0c6ffd" fill-opacity="1" d="M0,128L16,117.3C32,107,64,85,96,101.3C128,117,160,171,192,170.7C224,171,256,117,288,96C320,75,352,85,384,122.7C416,160,448,224,480,229.3C512,235,544,181,576,149.3C608,117,640,107,672,128C704,149,736,203,768,218.7C800,235,832,213,864,208C896,203,928,213,960,234.7C992,256,1024,288,1056,288C1088,288,1120,256,1152,234.7C1184,213,1216,203,1248,176C1280,149,1312,107,1344,112C1376,117,1408,171,1424,197.3L1440,224L1440,0L1424,0C1408,0,1376,0,1344,0C1312,0,1280,0,1248,0C1216,0,1184,0,1152,0C1120,0,1088,0,1056,0C1024,0,992,0,960,0C928,0,896,0,864,0C832,0,800,0,768,0C736,0,704,0,672,0C640,0,608,0,576,0C544,0,512,0,480,0C448,0,416,0,384,0C352,0,320,0,288,0C256,0,224,0,192,0C160,0,128,0,96,0C64,0,32,0,16,0L0,0Z"></path></svg>